<svg width="223" height="151" viewBox="0 0 223 151" fill="none" xmlns="http://www.w3.org/2000/svg">
<path fill-rule="evenodd" clip-rule="evenodd" d="M114.126 150.333C87.6482 152.11 64.2526 139.382 43.7789 128.287C24.3573 117.761 3.91627 105.312 1.15073 89.106C-1.48595 73.6555 20.5483 62.0199 30.0428 47.7954C38.4034 35.2698 37.3082 19.6659 53.3965 10.8328C69.9942 1.72011 93.6827 -0.677747 115.455 0.900829C135.98 2.38889 151.87 11.6834 168.975 19.2125C186.942 27.1214 208.92 32.9342 217.485 45.8122C226.378 59.1832 222.873 74.7005 214.868 88.2153C207.1 101.328 189.516 109.869 173.801 119.559C154.933 131.193 140.181 148.584 114.126 150.333Z" fill="#FFD057"/>
</svg>
