<svg width="187" height="110" viewBox="0 0 187 110" fill="none" xmlns="http://www.w3.org/2000/svg">
<path fill-rule="evenodd" clip-rule="evenodd" d="M186.395 48.0837C189.262 57.6638 176.819 66.7407 171.486 76.2316C165.452 86.9705 168.078 101.976 152.881 107.729C137.159 113.681 119.493 103.853 102.172 102.471C89.3893 101.451 76.1357 103.485 64.1807 100.652C51.7571 97.708 42.4052 91.7493 32.6956 86.0088C20.6079 78.8624 0.665988 73.8596 0.209932 62.8314C-0.249352 51.7254 19.7931 44.4602 30.6026 35.3971C39.1102 28.264 46.2579 20.6914 57.1217 15.1145C68.3261 9.36275 80.6763 4.73205 94.2699 2.71343C108.753 0.562776 125.174 -1.61568 137.344 3.20168C149.465 7.99935 148.659 19.9629 156.901 27.5042C165.426 35.3048 183.519 38.4783 186.395 48.0837Z" fill="#FFD057" fill-opacity="0.4"/>
</svg>
