<svg width="220" height="135" viewBox="0 0 220 135" fill="none" xmlns="http://www.w3.org/2000/svg">
<path fill-rule="evenodd" clip-rule="evenodd" d="M109.529 1.0516C127.028 3.39409 137.122 14.8897 152.59 20.6702C168.036 26.4427 188.537 26.3281 200.321 34.9825C212.72 44.0886 216.474 56.7551 218.167 68.8311C219.962 81.6378 223.551 96.7949 210.332 106.412C196.793 116.262 171.018 111.421 152.344 116.717C136.407 121.237 126.934 135.117 109.529 134.999C92.0992 134.882 81.4329 122.666 67.2277 116.143C54.4614 110.281 40.5925 105.934 30.0016 98.4801C17.4269 89.6306 0.112152 80.8412 0.000459267 68.8311C-0.11117 56.8279 20.1552 49.3716 29.4482 38.9758C38.7422 28.5789 39.7681 14.6737 54.7594 7.57425C69.9889 0.361932 91.036 -1.42395 109.529 1.0516Z" fill="#FFD057" fill-opacity="0.6"/>
</svg>
