<svg width="20" height="20" viewBox="0 0 20 20" fill="none" xmlns="http://www.w3.org/2000/svg">
  <path
    d="M16.5852 2.16643H15.9827V1.50904C15.9827 0.676599 15.3258 0 14.5176 0C13.7087 0 13.0524 0.676599 13.0524
        1.50904V2.16588H11.5489V1.50904C11.5489 0.676599 10.892 0 10.0837 0C9.27542 0 8.61858 0.676599 8.61858
        1.50904V2.16588H7.11502V1.50904C7.11502 0.676599 6.45818 0 5.64988 0C4.84159 0 4.18474 0.676599
        4.18474 1.50904V2.16588H3.41541C2.1297 2.16588 1.08325 3.21234 1.08325 4.49804V17.6678C1.08325
        18.9536 2.1297 20 3.41541 20H16.5852C17.8715 20 18.9174 18.9536 18.9174 17.6678V4.49804C18.9174
        3.21288 17.8709 2.16643 16.5852 2.16643ZM13.8755 1.50904C13.8755 1.13096 14.1636 0.823113 14.5176
        0.823113C14.872 0.823113 15.1596 1.13096 15.1596 1.50904V4.19568C15.1596 4.57376 14.872 4.88161
        14.5176 4.88161C14.1636 4.88161 13.8755 4.57376 13.8755 4.19568V1.50904ZM9.44169 1.50904C9.44169
        1.13096 9.72978 0.823113 10.0837 0.823113C10.4377 0.823113 10.7257 1.13096 10.7257 1.50904V4.19568C10.7257
        4.57376 10.4377 4.88161 10.0837 4.88161C9.72978 4.88161 9.44169 4.57376 9.44169 4.19568V1.50904ZM5.00731
        1.50904C5.00731 1.13096 5.2954 0.823113 5.64933 0.823113C6.00327 0.823113 6.29136 1.13096 6.29136
        1.50904V4.19568C6.29136 4.57376 6.00327 4.88161 5.64933 4.88161C5.2954 4.88161 5.00731 4.57376 5.00731 4.19568V1.50904ZM17.5455
        17.6684C17.5455 18.1979 17.1147 18.6287 16.5852 18.6287H3.41541C2.88587 18.6287 2.45511 18.1979 2.45511 17.6684V5.59607H17.5455V17.6684Z"
    fill="#BEBEBE"
  />
  <path d="M6.21129 8.02588H3.68982V10.2697H6.21129V8.02588Z" fill="#BEBEBE" />
  <path d="M9.57719 8.02588H7.05518V10.2697H9.57719V8.02588Z" fill="#BEBEBE" />
  <path d="M12.9448 8.02588H10.4233V10.2697H12.9448V8.02588Z" fill="#BEBEBE" />
  <path d="M16.3108 8.02588H13.7888V10.2697H16.3108V8.02588Z" fill="#BEBEBE" />
  <path d="M6.21129 11.0209H3.68982V13.263H6.21129V11.0209Z" fill="#BEBEBE" />
  <path d="M9.57719 11.0209H7.05518V13.263H9.57719V11.0209Z" fill="#BEBEBE" />
  <path d="M12.9448 11.0209H10.4233V13.263H12.9448V11.0209Z" fill="#BEBEBE" />
  <path d="M16.3108 11.0209H13.7888V13.263H16.3108V11.0209Z" fill="#BEBEBE" />
  <path d="M6.21129 14.0149H3.68982V16.2571H6.21129V14.0149Z" fill="#BEBEBE" />
  <path d="M9.57719 14.0149H7.05518V16.2571H9.57719V14.0149Z" fill="#BEBEBE" />
  <path d="M12.9448 14.0149H10.4233V16.2571H12.9448V14.0149Z" fill="#BEBEBE" />
  <path d="M16.3108 14.0149H13.7888V16.2571H16.3108V14.0149Z" fill="#BEBEBE" />
</svg>
